<svg width="48" height="48" viewBox="0 0 48 48" fill="none" xmlns="http://www.w3.org/2000/svg">
<path fill-rule="evenodd" clip-rule="evenodd" d="M25.94 48H22.06V45.058H20.293V41.427L12.471 41.419L12.48 32.166H10.637L10.631 31.352H8.35504V30.108H6.92704V28.254H8.35504V26.624H10.577L9.93704 25.638H6.22704C5.71104 25.638 5.37404 26.278 5.37404 26.278L4.73804 26.078C4.79664 25.8151 4.87904 25.558 4.98404 25.31C5.08404 25.027 5.31104 24.472 5.31104 24.472L5.34104 24.397C5.39204 24.275 5.44104 24.154 5.50204 24.036C5.80204 23.3163 6.33494 22.7175 7.01504 22.336C7.10594 22.2918 7.19984 22.2541 7.29604 22.223C7.46894 22.168 7.64794 22.1345 7.82904 22.123C7.88404 22.123 7.93904 22.123 7.99404 22.123L8.00904 22.086L8.03204 22.032C8.09824 21.8836 8.18294 21.7442 8.28404 21.617C8.34974 21.5386 8.42194 21.466 8.50004 21.4C8.81464 21.117 9.19754 20.9209 9.61104 20.831L9.59204 17.356L11.465 17.362L11.46 14.9L13.293 14.889L13.3 13.248L14.417 13.243L13.121 11H11.381L14.281 8.093L19.272 8.099V2.599H22.1V0H25.9V2.6H28.724V8.1L33.715 8.094L36.619 11H34.879L33.579 13.245L34.696 13.25L34.703 14.891L36.536 14.902L36.528 17.36L38.402 17.354L38.383 20.829C38.7988 20.9185 39.184 21.1154 39.5 21.4C39.5799 21.469 39.6535 21.545 39.72 21.627C39.8211 21.7542 39.9058 21.8936 39.972 22.042L39.995 22.096L40.009 22.133C40.064 22.133 40.119 22.133 40.174 22.133C40.3551 22.1445 40.5341 22.178 40.707 22.233C40.8032 22.2641 40.8971 22.3018 40.988 22.346C41.6681 22.7275 42.201 23.3263 42.501 24.046C42.558 24.165 42.611 24.286 42.662 24.407L42.692 24.482C42.692 24.482 42.919 25.038 43.019 25.32C43.124 25.568 43.2064 25.8251 43.265 26.088L42.629 26.288C42.629 26.288 42.292 25.648 41.776 25.648H38.066L37.426 26.634H39.648V28.264H41.077V30.1H39.642V31.344H37.373L37.367 32.158H35.525L35.534 41.411L27.712 41.419V45.05H25.94V48Z" fill="url(#paint0_linear_310_7008)"/>
<path fill-rule="evenodd" clip-rule="evenodd" d="M25.1251 47.1998H22.8751V44.2578H21.1111V41.4188H22.8791V43.0468H25.1221V41.4188H26.8901V44.2578H25.1251V47.1998ZM34.6951 40.6188H13.3061V31.7188H34.6941L34.6951 40.6188ZM31.1721 39.5498C31.1813 39.5992 31.1775 39.6503 31.1611 39.6978C31.1404 39.7598 31.1139 39.8197 31.0821 39.8768C31.0446 39.9456 30.9952 40.0073 30.9361 40.0588C30.9125 40.0874 30.8796 40.1069 30.8431 40.1138C30.8054 40.1011 30.7712 40.0799 30.7431 40.0518C30.7011 40.0171 30.6571 39.9815 30.6111 39.9448C30.576 39.9183 30.5426 39.8895 30.5111 39.8588C30.4886 39.8421 30.4732 39.8174 30.4681 39.7898C30.4961 39.7308 30.5181 39.6848 30.5321 39.6528C30.5801 39.5515 30.6158 39.4781 30.6391 39.4328C30.6818 39.3661 30.7248 39.2951 30.7681 39.2198L30.8111 39.1578C30.8243 39.1705 30.8387 39.1818 30.8541 39.1918L30.9111 39.2258C30.9835 39.2787 31.0505 39.3387 31.1111 39.4048C31.1445 39.4465 31.1665 39.4961 31.1751 39.5488L31.1721 39.5498ZM25.8161 38.5578C26.1387 38.5587 26.4606 38.5276 26.7771 38.4648C27.0575 38.4101 27.3335 38.3353 27.6031 38.2408C27.8469 38.1531 28.0777 38.0327 28.2891 37.8828C28.4889 37.745 28.6692 37.5808 28.8251 37.3948C28.8678 37.3395 28.9344 37.2525 29.0251 37.1338C29.0681 37.0738 29.0991 37.0338 29.1181 37.0098C29.1371 36.9858 29.1421 36.9908 29.1471 36.9958C29.1528 37.0036 29.1553 37.0132 29.1541 37.0228L29.1471 37.0988C29.1424 37.1401 29.1318 37.2285 29.1151 37.3638C29.0996 37.4825 29.0912 37.6021 29.0901 37.7218C29.0842 37.9003 29.1144 38.0783 29.1791 38.2448C29.2306 38.3767 29.3628 38.4605 29.5041 38.4508C29.6041 38.4508 29.7018 38.3765 29.7971 38.2278C29.9103 38.0327 29.99 37.8201 30.0331 37.5988L30.0511 37.5098C30.0572 37.4825 30.0608 37.4547 30.0621 37.4268C30.0621 37.3808 30.0501 37.3578 30.0261 37.3578C30.0021 37.3578 29.9911 37.3788 29.9801 37.4198C29.9691 37.4608 29.9571 37.4978 29.9481 37.5298C29.8961 37.6718 29.8364 37.7428 29.7691 37.7428C29.6906 37.745 29.6132 37.7234 29.5471 37.6808C29.4323 37.585 29.3732 37.4374 29.3901 37.2888V37.1818C29.3901 37.0991 29.3974 36.9765 29.4121 36.8138C29.4281 36.6331 29.4494 36.4531 29.4761 36.2738L29.6261 35.5518C29.6328 35.5165 29.6398 35.4811 29.6471 35.4458L29.8141 35.3328L30.4821 34.8268C30.6734 34.7035 30.8641 34.5788 31.0541 34.4528C31.2188 34.3435 31.3808 34.2308 31.5401 34.1148C31.7974 33.9268 31.9904 33.7835 32.1191 33.6848C32.2904 33.5515 32.4121 33.4555 32.4841 33.3968C32.5561 33.3381 32.6264 33.2738 32.6951 33.2038C32.7811 33.1218 32.8634 33.0368 32.9421 32.9488C33.0126 32.8676 33.0771 32.7814 33.1351 32.6908C33.1931 32.6121 33.239 32.5251 33.2711 32.4328C33.2807 32.4161 33.2855 32.3971 33.2851 32.3778C33.2851 32.3858 33.1064 32.5371 32.7491 32.8318C32.5631 32.9891 32.3748 33.1445 32.1841 33.2978C31.9794 33.4605 31.7698 33.6181 31.5551 33.7708C31.2511 33.9828 30.9461 34.1935 30.6401 34.4028C30.3449 34.6122 30.062 34.8386 29.7931 35.0808C29.7292 35.1358 29.6736 35.1998 29.6281 35.2708C29.6194 35.2827 29.6114 35.295 29.6041 35.3078C29.5715 35.3627 29.5421 35.4195 29.5161 35.4778L29.4841 35.5408C29.4235 35.6539 29.371 35.7712 29.3271 35.8918L29.2271 36.2838C29.1772 36.4654 29.0974 36.6374 28.9911 36.7928C28.8437 36.9882 28.6561 37.1498 28.4411 37.2668C27.8524 37.592 27.1969 37.7778 26.5251 37.8098C26.3631 37.8238 26.1464 37.8308 25.8751 37.8308C25.5486 37.8755 25.2166 37.8025 24.9391 37.6248C24.8801 37.5593 24.8449 37.4758 24.8391 37.3878C24.8321 37.2978 24.8211 37.2538 24.8071 37.2538C24.7691 37.2538 24.7394 37.3318 24.7181 37.4878C24.6971 37.6382 24.6865 37.7899 24.6861 37.9418C24.6753 38.0805 24.7147 38.2186 24.7971 38.3308C24.913 38.4352 25.0597 38.4991 25.2151 38.5128C25.3805 38.5387 25.5477 38.5504 25.7151 38.5478L25.8161 38.5578ZM18.4721 36.6998C18.4675 36.7923 18.4554 36.8842 18.4361 36.9748C18.4121 37.1028 18.3881 37.2151 18.3641 37.3118L18.2781 37.6488C18.2301 37.7768 18.1921 37.8708 18.1641 37.9308C18.1289 38.004 18.0895 38.0751 18.0461 38.1438C18.0164 38.192 17.9789 38.2349 17.9351 38.2708C17.8743 38.3141 17.8097 38.352 17.7421 38.3838L17.4851 38.4838C17.43 38.5009 17.3739 38.5146 17.3171 38.5248C17.2619 38.5383 17.2057 38.5477 17.1491 38.5528C17.1251 38.5528 17.1111 38.5448 17.1061 38.5288C17.1022 38.5084 17.1073 38.4872 17.1201 38.4708C17.1699 38.4039 17.2308 38.3461 17.3001 38.2998C17.3981 38.2265 17.4948 38.1555 17.5901 38.0868C17.6994 37.9901 17.7804 37.9145 17.8331 37.8598C17.915 37.7744 17.9869 37.6797 18.0471 37.5778C18.0714 37.5326 18.0919 37.4855 18.1081 37.4368C18.1341 37.3661 18.1758 37.2505 18.2331 37.0898L18.3191 36.8418C18.3284 36.8051 18.3428 36.7605 18.3621 36.7078C18.3811 36.6558 18.4051 36.6288 18.4341 36.6288C18.452 36.6482 18.4644 36.672 18.4701 36.6978L18.4721 36.6998ZM23.7011 37.4788V37.4848C23.8011 37.3868 23.8604 37.3268 23.8791 37.3048C23.9536 37.2203 24.0141 37.1245 24.0581 37.0208C24.1159 36.8764 24.1578 36.7262 24.1831 36.5728C24.213 36.4309 24.2307 36.2867 24.2361 36.1418C24.2361 36.0218 24.2361 35.8958 24.2361 35.7638C24.2361 35.6318 24.2444 35.4985 24.2611 35.3638C24.2611 35.2388 24.2681 35.1638 24.2681 35.1298C24.2681 35.1238 24.2681 35.1178 24.2681 35.1128C24.2831 35.1048 24.3021 35.0928 24.3241 35.0788L24.5351 34.9348L25.0461 34.5888C25.2461 34.4601 25.4434 34.3301 25.6381 34.1988C25.8088 34.0848 25.9754 33.9668 26.1381 33.8448C26.4048 33.6448 26.6048 33.4941 26.7381 33.3928C26.9168 33.2548 27.0434 33.1548 27.1181 33.0928C27.1928 33.0308 27.2668 32.9621 27.3401 32.8868C27.4308 32.7995 27.5178 32.7088 27.6011 32.6148C27.6766 32.5268 27.7457 32.4335 27.8081 32.3358C27.871 32.2496 27.9215 32.155 27.9581 32.0548C27.9687 32.0362 27.9745 32.0152 27.9751 31.9938C27.9751 32.0031 27.7881 32.1635 27.4141 32.4748C27.2194 32.6415 27.0228 32.8061 26.8241 32.9688C26.6108 33.1408 26.3924 33.3075 26.1691 33.4688C25.8538 33.6908 25.5374 33.9111 25.2201 34.1298C24.9762 34.2917 24.7424 34.4683 24.5201 34.6588C24.4527 34.717 24.3938 34.7843 24.3451 34.8588C24.2971 34.9333 24.2547 35.0111 24.2181 35.0918L24.2061 35.1198V35.1258L23.9641 35.6868C23.9415 35.7431 23.9293 35.8031 23.9281 35.8638C23.9234 35.9418 23.9211 36.0321 23.9211 36.1348L23.9281 36.5828C23.9348 36.7289 23.9106 36.8747 23.8571 37.0108C23.8349 37.0571 23.8074 37.1008 23.7751 37.1408C23.7525 37.1711 23.7247 37.1971 23.6931 37.2178L23.6501 37.2378C23.6162 37.2417 23.5819 37.2372 23.5501 37.2248C23.5261 37.2608 23.5021 37.2938 23.4781 37.3248C23.4401 37.3749 23.3878 37.4122 23.3281 37.4318C23.2998 37.4472 23.2645 37.4418 23.2421 37.4188C23.2091 37.4498 23.1781 37.4818 23.1491 37.5128C23.1042 37.5606 23.0426 37.5892 22.9771 37.5928C22.9125 37.5931 22.848 37.5885 22.7841 37.5788C22.6788 37.6501 22.5761 37.7215 22.4761 37.7928C22.3909 37.8475 22.2913 37.8753 22.1901 37.8728C22.0202 37.8876 21.8552 37.808 21.7611 37.6658C21.7041 37.5615 21.6771 37.4435 21.6831 37.3248C21.6831 37.2708 21.6831 37.1848 21.6971 37.0638C21.7091 36.9205 21.7258 36.7778 21.7471 36.6358L21.8691 35.8198L21.8981 35.6458C21.9065 35.6108 21.9089 35.5746 21.9051 35.5388L21.8761 35.5518C21.8334 35.6365 21.7764 35.7611 21.7051 35.9258C21.6338 36.0905 21.5958 36.1818 21.5911 36.1998C21.5578 36.4185 21.5148 36.7338 21.4621 37.1458C21.4094 37.5578 21.3831 37.7911 21.3831 37.8458C21.3842 37.9074 21.3889 37.9688 21.3971 38.0298C21.402 38.088 21.4137 38.1454 21.4321 38.2008C21.482 38.4084 21.6696 38.5556 21.8831 38.5548C22.0806 38.5454 22.2596 38.4339 22.3551 38.2608C22.4884 38.0648 22.5958 37.9668 22.6771 37.9668L22.7771 37.9768C22.8043 37.9804 22.8319 37.9804 22.8591 37.9768C22.9106 37.957 22.9578 37.9274 22.9981 37.8898C23.0389 37.8537 23.0819 37.8203 23.1271 37.7898C23.1578 37.7726 23.192 37.7624 23.2271 37.7598C23.2575 37.7577 23.287 37.7485 23.3131 37.7328C23.3511 37.6968 23.3831 37.6688 23.4131 37.6488C23.4373 37.6298 23.4639 37.614 23.4921 37.6018C23.5181 37.5908 23.5721 37.5648 23.6531 37.5248L23.6961 37.4908L23.7011 37.4788ZM17.7861 34.7848C17.7911 34.7696 17.7885 34.7528 17.7791 34.7398C17.7655 34.7233 17.7484 34.71 17.7291 34.7008C17.6408 34.72 17.5563 34.7538 17.4791 34.8008C17.3872 34.8476 17.2986 34.9007 17.2141 34.9598C17.1234 35.0225 17.0494 35.0775 16.9921 35.1248C16.8624 35.2396 16.7405 35.3629 16.6271 35.4938C16.4752 35.6644 16.3476 35.8552 16.2481 36.0608C16.1697 36.2081 16.1233 36.3703 16.1121 36.5368C16.1081 36.6061 16.1282 36.6747 16.1691 36.7308C16.2134 36.7826 16.2697 36.8228 16.3331 36.8478C16.3652 36.8627 16.3987 36.8744 16.4331 36.8828C16.4618 36.8895 16.5094 36.9025 16.5761 36.9218C16.6428 36.9411 16.6761 36.9701 16.6761 37.0088C16.6716 37.0876 16.6456 37.1637 16.6011 37.2288C16.5396 37.3248 16.4664 37.4129 16.3831 37.4908C16.2787 37.5896 16.1579 37.6695 16.0261 37.7268C15.8401 37.8124 15.6378 37.8568 15.4331 37.8568C15.2301 37.8693 15.0284 37.8159 14.8581 37.7048C14.7274 37.6096 14.6523 37.4554 14.6581 37.2938C14.6821 37.037 14.7522 36.7867 14.8651 36.5548L14.9511 36.3738C15.0084 36.2531 15.0514 36.1668 15.0801 36.1148C15.1321 36.0148 15.1671 35.9448 15.1801 35.9038C15.1931 35.8628 15.2191 35.8098 15.2481 35.7448C15.2586 35.7227 15.2634 35.6983 15.2621 35.6738C15.2621 35.6348 15.2451 35.6158 15.2121 35.6158C15.1981 35.6158 15.1801 35.6328 15.1581 35.6678C15.1361 35.7028 15.1161 35.7368 15.0971 35.7678L14.9331 36.0858L14.7261 36.4938C14.6397 36.6633 14.5655 36.8387 14.5041 37.0188C14.4669 37.1278 14.4381 37.2394 14.4181 37.3528C14.3987 37.4651 14.389 37.5788 14.3891 37.6928C14.3902 37.7903 14.4046 37.8872 14.4321 37.9808C14.4626 38.0857 14.5136 38.1836 14.5821 38.2688C14.7464 38.4618 14.9947 38.5633 15.2471 38.5408C15.4904 38.5458 15.7303 38.4831 15.9401 38.3598C16.0461 38.2983 16.1445 38.2245 16.2331 38.1398C16.3181 38.0595 16.397 37.9729 16.4691 37.8808C16.6102 37.68 16.7189 37.4583 16.7911 37.2238C16.8658 37.0077 16.907 36.7814 16.9131 36.5528C16.9279 36.4445 16.8845 36.336 16.7991 36.2678C16.7762 36.2511 16.7509 36.238 16.7241 36.2288L16.6351 36.1968L16.5061 36.1378C16.4769 36.1082 16.4592 36.0692 16.4561 36.0278C16.4744 35.9638 16.5088 35.9056 16.5561 35.8588C16.6419 35.7554 16.7388 35.6619 16.8451 35.5798C16.933 35.5015 17.0317 35.4362 17.1381 35.3858C17.2093 35.3491 17.2872 35.327 17.3671 35.3208C17.3836 35.3216 17.3996 35.3272 17.4131 35.3368L17.4671 35.3728C17.4961 35.3728 17.5291 35.3468 17.5671 35.2948C17.5771 35.2818 17.6041 35.2308 17.6491 35.1428C17.6859 35.0755 17.7193 35.0065 17.7491 34.9358C17.7682 34.8866 17.7826 34.8357 17.7921 34.7838L17.7861 34.7848ZM20.7711 37.5628L20.6711 37.8168C20.6286 37.9078 20.577 37.9942 20.5171 38.0748C20.477 38.1348 20.4278 38.1881 20.3711 38.2328C20.3032 38.2713 20.2315 38.3024 20.1571 38.3258L20.0071 38.3808C19.9304 38.4048 19.8541 38.4301 19.7781 38.4568C19.7039 38.4818 19.6271 38.4979 19.5491 38.5048L19.5201 38.4908C19.5201 38.4588 19.6058 38.3901 19.7771 38.2848L20.0561 38.0928C20.1034 38.0608 20.1558 38.0218 20.2131 37.9758C20.2796 37.9217 20.3421 37.8629 20.4001 37.7998C20.4592 37.7393 20.5043 37.6666 20.5321 37.5868C20.5328 37.5729 20.5352 37.5592 20.5391 37.5458L20.3531 37.5598C20.2742 37.5627 20.1972 37.5343 20.1391 37.4808C20.0862 37.4391 20.0589 37.3726 20.0671 37.3058C20.0741 37.2609 20.0861 37.2169 20.1031 37.1748C20.1221 37.1248 20.1651 37.0328 20.2321 36.8998C20.269 36.8231 20.3122 36.7495 20.3611 36.6798C20.4231 36.5968 20.4831 36.5558 20.5401 36.5558C20.6365 36.5564 20.7279 36.5992 20.7901 36.6728C20.8612 36.7492 20.8996 36.8505 20.8971 36.9548C20.8971 37.0101 20.8924 37.0653 20.8831 37.1198L20.8581 37.2638C20.8511 37.3048 20.8401 37.3548 20.8261 37.4118C20.8141 37.4626 20.7973 37.5121 20.7761 37.5598L20.7711 37.5628ZM19.6941 36.6458C19.6894 36.7383 19.6774 36.8302 19.6581 36.9208C19.6341 37.0488 19.6101 37.1611 19.5861 37.2578L19.5001 37.5998C19.4521 37.7285 19.4141 37.8225 19.3861 37.8818C19.3509 37.955 19.3115 38.0261 19.2681 38.0948C19.2382 38.1428 19.2007 38.1857 19.1571 38.2218C19.0962 38.2651 19.0316 38.3029 18.9641 38.3348L18.7071 38.4348C18.652 38.4519 18.5959 38.4656 18.5391 38.4758C18.4839 38.4893 18.4277 38.4987 18.3711 38.5038C18.3471 38.5038 18.3331 38.4958 18.3281 38.4798C18.3242 38.4594 18.3293 38.4382 18.3421 38.4218C18.3923 38.3543 18.4539 38.2961 18.5241 38.2498C18.6221 38.1765 18.7188 38.1055 18.8141 38.0368C18.9234 37.9408 19.0044 37.8651 19.0571 37.8098C19.139 37.7243 19.2109 37.6297 19.2711 37.5278C19.2954 37.4826 19.3158 37.4355 19.3321 37.3868C19.3581 37.3155 19.3998 37.1998 19.4571 37.0398L19.5431 36.7918C19.5531 36.7548 19.5671 36.7108 19.5861 36.6578C19.6051 36.6048 19.6291 36.5788 19.6581 36.5788C19.6756 36.5977 19.688 36.6208 19.6941 36.6458ZM30.7641 37.1898C30.7641 37.1348 30.7641 37.0458 30.7781 36.9218C30.7901 36.7745 30.8068 36.6278 30.8281 36.4818L30.9501 35.6428L30.9791 35.4638C30.9877 35.4278 30.9901 35.3906 30.9861 35.3538L30.9571 35.3678C30.9144 35.4551 30.8571 35.5835 30.7851 35.7528C30.7131 35.9221 30.6751 36.0161 30.6711 36.0348C30.6378 36.2595 30.5948 36.5838 30.5421 37.0078C30.4894 37.4318 30.4631 37.6705 30.4631 37.7238C30.4572 37.9023 30.4874 38.0803 30.5521 38.2468C30.6036 38.3787 30.7358 38.4625 30.8771 38.4528C30.9771 38.4528 31.0748 38.3785 31.1701 38.2298C31.2833 38.0347 31.363 37.8221 31.4061 37.6008L31.4241 37.5118C31.4302 37.4845 31.4338 37.4567 31.4351 37.4288C31.4351 37.3828 31.4231 37.3598 31.3991 37.3598C31.3751 37.3598 31.3651 37.3808 31.3531 37.4218L31.3211 37.5318C31.2684 37.6738 31.2088 37.7448 31.1421 37.7448C31.0636 37.747 30.9862 37.7254 30.9201 37.6828C30.8053 37.587 30.7462 37.4394 30.7631 37.2908V37.1908L30.7641 37.1898ZM18.8001 35.1428C18.8093 35.1923 18.8055 35.2432 18.7891 35.2908C18.7682 35.3527 18.7418 35.4127 18.7101 35.4698C18.6726 35.5386 18.6232 35.6003 18.5641 35.6518C18.5405 35.6805 18.5076 35.7 18.4711 35.7068C18.4334 35.6942 18.3991 35.673 18.3711 35.6448C18.3271 35.6081 18.2818 35.5725 18.2351 35.5378C18.2 35.5113 18.1666 35.4826 18.1351 35.4518C18.1126 35.4351 18.0972 35.4104 18.0921 35.3828C18.1208 35.3235 18.1421 35.2778 18.1561 35.2458C18.2041 35.1458 18.2391 35.0718 18.2631 35.0258C18.3061 34.9568 18.3491 34.8858 18.3921 34.8128L18.4351 34.7508C18.4483 34.7638 18.4627 34.7755 18.4781 34.7858L18.5351 34.8198C18.6076 34.8726 18.6746 34.9326 18.7351 34.9988C18.7688 35.0404 18.7912 35.09 18.8001 35.1428ZM22.5471 34.2288C22.5385 34.1761 22.5164 34.1265 22.4831 34.0848C22.4225 34.0186 22.3555 33.9587 22.2831 33.9058L22.2261 33.8718C22.2107 33.8619 22.1963 33.8505 22.1831 33.8378L22.1401 33.8998C22.0974 33.9731 22.0544 34.0441 22.0111 34.1128C21.9871 34.1588 21.9514 34.2321 21.9041 34.3328C21.8901 34.3648 21.8681 34.4108 21.8401 34.4698C21.8453 34.4974 21.8606 34.522 21.8831 34.5388C21.9146 34.5695 21.948 34.5983 21.9831 34.6248C22.0291 34.6588 22.0744 34.6941 22.1191 34.7308C22.147 34.7591 22.1813 34.7804 22.2191 34.7928C22.2556 34.786 22.2886 34.7666 22.3121 34.7378C22.3715 34.6863 22.4212 34.6247 22.4591 34.5558C22.4909 34.4987 22.5173 34.4388 22.5381 34.3768C22.5545 34.3293 22.5583 34.2782 22.5491 34.2288H22.5471ZM23.2831 34.1878C23.2923 34.2373 23.2885 34.2882 23.2721 34.3358C23.2513 34.3978 23.2249 34.4577 23.1931 34.5148C23.1557 34.5837 23.1063 34.6454 23.0471 34.6968C23.0236 34.7256 22.9906 34.745 22.9541 34.7518C22.9164 34.7391 22.8822 34.7179 22.8541 34.6898C22.8101 34.6531 22.7648 34.6175 22.7181 34.5828C22.683 34.5563 22.6496 34.5276 22.6181 34.4968C22.5956 34.48 22.5803 34.4554 22.5751 34.4278C22.6041 34.3688 22.6251 34.3218 22.6391 34.2908C22.6738 34.2168 22.7094 34.1435 22.7461 34.0708C22.7828 33.9981 22.8258 33.9271 22.8751 33.8578L22.9181 33.7958C22.9312 33.8086 22.9456 33.82 22.9611 33.8298L23.0181 33.8648C23.0905 33.9177 23.1575 33.9777 23.2181 34.0438C23.2521 34.0853 23.2749 34.1349 23.2841 34.1878H23.2831ZM29.8501 34.1368C29.8592 34.1863 29.8554 34.2372 29.8391 34.2848C29.8184 34.3468 29.7919 34.4067 29.7601 34.4638C29.7225 34.5326 29.6731 34.5942 29.6141 34.6458C29.5905 34.6745 29.5576 34.694 29.5211 34.7008C29.4834 34.6882 29.4492 34.6669 29.4211 34.6388C29.3771 34.6021 29.3318 34.5665 29.2851 34.5318C29.2499 34.5054 29.2165 34.4767 29.1851 34.4458C29.1626 34.4291 29.1472 34.4044 29.1421 34.3768C29.1708 34.3175 29.1921 34.2718 29.2061 34.2398C29.2541 34.1398 29.2891 34.0658 29.3131 34.0198C29.3561 33.9508 29.3991 33.8798 29.4421 33.8068L29.4851 33.7448C29.4983 33.7578 29.5127 33.7695 29.5281 33.7798L29.5851 33.8138C29.6576 33.8666 29.7247 33.9265 29.7851 33.9928C29.8193 34.0342 29.841 34.0839 29.8501 34.1368ZM22.9111 33.3368C22.9022 33.284 22.8798 33.2344 22.8461 33.1928C22.7857 33.1264 22.7187 33.0665 22.6461 33.0138L22.5891 32.9798C22.5736 32.97 22.5592 32.9586 22.5461 32.9458L22.5031 33.0078C22.4601 33.0808 22.4171 33.1518 22.3741 33.2208C22.3501 33.2668 22.3141 33.3398 22.2671 33.4408C22.2531 33.4728 22.2311 33.5188 22.2021 33.5778C22.2072 33.6054 22.2226 33.6301 22.2451 33.6468C22.2741 33.6748 22.3081 33.7038 22.3451 33.7368L22.4811 33.8438C22.5096 33.8705 22.5438 33.8904 22.5811 33.9018C22.6176 33.895 22.6505 33.8755 22.6741 33.8468C22.7332 33.7953 22.7826 33.7336 22.8201 33.6648C22.8518 33.6077 22.8783 33.5477 22.8991 33.4858C22.9155 33.4382 22.9192 33.3873 22.9101 33.3378L22.9111 33.3368ZM19.5441 8.84881L20.8151 11.0488V21.4798L23.6001 23.5058V30.9228H20.3571V24.0908L17.1571 20.8908V13.1798L15.2871 9.94081H13.5791L14.6791 8.84081L19.5441 8.84881ZM16.7611 21.6268L19.5611 24.4268V30.9268H16.9311L12.9721 24.8388H6.04712C6.59912 23.4018 7.50712 22.5388 8.64712 23.1138C8.65912 22.1998 8.98912 21.6308 10.5311 21.6308L16.7611 21.6268ZM12.5371 25.6348L15.9761 30.9228H14.3401L10.9091 25.6348H12.5371ZM27.6431 30.9228H24.4001V23.5058L27.1851 21.4808V11.0498L28.4561 8.8498H33.3181L34.4181 9.94981H32.7101L30.8401 13.1888V20.8998L27.6401 24.0998L27.6431 30.9228ZM35.0281 24.8348L31.0691 30.9228H28.4431V24.4228L31.2431 21.6228H37.4701C39.0121 21.6228 39.3431 22.1918 39.3541 23.1058C40.4971 22.5278 41.4051 23.3938 41.9541 24.8308L35.0281 24.8348ZM32.0281 30.9228L35.4671 25.6348H37.0961L33.6601 30.9228H32.0281ZM12.4581 29.4918H10.5341V28.5818H11.8671L12.4581 29.4918ZM37.4671 29.4918H35.5421L36.1331 28.5818H37.4661L37.4671 29.4918ZM25.0791 3.3998H27.9001L27.9091 8.1998L26.3851 10.8398V21.0768L24.4001 22.5168V20.1428L25.1121 19.6248V4.8358H22.8881V19.6238L23.6001 20.1418V22.5158L21.6151 21.0718V10.8358L20.0911 8.1998L20.1001 3.3998H22.9211V0.799805H25.0801L25.0791 3.3998ZM13.9421 20.8268H14.7421V18.4418H13.9421V20.8268ZM15.5621 20.8268H16.3621V13.3998L14.8301 10.7458H13.9231L15.5621 13.5848V20.8268ZM33.2621 20.8268H34.0621V18.4418H33.2621V20.8268ZM32.4421 20.8268H31.6421V13.3998L33.1741 10.7458H34.0811L32.4421 13.5848V20.8268Z" fill="#1F261A"/>
<defs>
<linearGradient id="paint0_linear_310_7008" x1="43.265" y1="0" x2="4.73804" y2="0" gradientUnits="userSpaceOnUse">
<stop stop-color="#D8AC4E"/>
<stop offset="1" stop-color="#ECE482"/>
</linearGradient>
</defs>
</svg>
