<svg width="48" height="48" viewBox="0 0 48 48" fill="none" xmlns="http://www.w3.org/2000/svg">
<path fill-rule="evenodd" clip-rule="evenodd" d="M31.5112 18.3721H31.1886C31.1186 18.8406 30.8744 19.3199 30.4559 19.81C30.3159 19.81 30.1483 19.7783 29.9533 19.715C29.7649 19.655 29.6099 19.5841 29.4882 19.5024C29.8833 19.3424 30.1867 19.174 30.3984 18.9973C30.5884 18.8389 30.7518 18.6305 30.8885 18.3721C30.3384 18.3721 29.9791 18.2938 29.8107 18.1371C29.8107 17.762 29.8916 17.4444 30.0533 17.1843C30.1617 17.0109 30.2859 16.8859 30.4259 16.8092C30.591 16.8092 30.741 16.8751 30.876 17.0068C31.0394 17.1651 31.1436 17.3919 31.1886 17.6869H31.5837C31.6471 17.6869 31.7437 17.5702 31.8738 17.3369C32.0355 17.0468 32.1664 16.8509 32.2664 16.7492C32.6031 16.7492 32.8449 16.8309 32.9916 16.9943C33.1283 17.1493 33.1966 17.3977 33.1966 17.7395C33.0499 18.0979 32.8982 18.3346 32.7415 18.4496C32.4664 18.4496 32.1922 18.3146 31.9188 18.0445C31.7988 18.2629 31.6629 18.3721 31.5112 18.3721ZM12.9183 16.4301L12.6054 17.1083C12.5072 17.0727 12.4149 17.0549 12.3287 17.0549C12.0391 17.0549 11.8064 17.2607 11.6306 17.6722C11.6392 17.7331 11.7366 17.7899 11.9228 17.8423L12.4296 17.9846C12.6106 18.054 12.7011 18.1395 12.7011 18.2411C12.7011 18.4799 12.6278 18.7932 12.4813 19.1809C11.8504 19.5501 11.203 19.7347 10.5393 19.7347C10.2325 19.7347 9.99112 19.6661 9.81532 19.5289C9.62402 19.3782 9.52832 19.1555 9.52832 18.8609C9.52832 18.6729 9.57482 18.446 9.66792 18.1802C9.74552 17.9566 9.83602 17.7594 9.93942 17.5883C10.0273 17.5816 10.092 17.6121 10.1334 17.6798C9.99552 17.9321 9.92652 18.1819 9.92652 18.4291C9.92652 18.8389 10.1997 19.0438 10.7462 19.0438C10.972 19.0438 11.253 19.0048 11.5892 18.9269C11.9512 18.8423 12.2184 18.7466 12.3908 18.6399C12.246 18.54 12.0253 18.4579 11.7288 18.3935C11.4875 18.341 11.3289 18.2589 11.253 18.1472C11.253 18.0557 11.2884 17.8864 11.3591 17.6391C11.6056 16.7755 11.9909 16.3437 12.5149 16.3437C12.6425 16.3437 12.777 16.3725 12.9183 16.4301ZM14.3686 18.1898C14.3686 18.393 14.2781 18.6707 14.097 19.0229C13.9229 19.3616 13.7445 19.6207 13.5618 19.8002C13.4428 19.8002 13.2834 19.7595 13.0834 19.6783C12.8834 19.597 12.7403 19.5149 12.6541 19.4319C12.9662 19.2913 13.2446 19.1279 13.4894 18.9416C13.7773 18.7232 13.9479 18.5259 14.0014 18.3498C13.9238 18.1382 13.7643 17.9527 13.523 17.7936L13.8798 17.1154C14.0074 17.2237 14.1207 17.388 14.2199 17.6081C14.319 17.8283 14.3686 18.0222 14.3686 18.1898ZM16.3718 19.186L15.9555 19.5721L15.5469 19.1708L15.971 18.7898L16.3718 19.186ZM18.0707 18.3707C17.9311 18.3707 17.8009 18.3106 17.6802 18.1903C17.5682 18.0786 17.4984 17.9524 17.4708 17.8119C17.4501 17.9423 17.3768 18.0667 17.251 18.1853C17.12 18.3089 16.989 18.3707 16.8579 18.3707H16.6511C16.5114 18.3707 16.3813 18.3106 16.2606 18.1903C16.1486 18.0786 16.0787 17.9524 16.0512 17.8119C16.0305 17.9423 15.9572 18.0667 15.8314 18.1853C15.7003 18.3089 15.5693 18.3707 15.4383 18.3707H15.3633C15.0341 18.3707 14.8194 18.2369 14.7195 17.9693C14.6522 17.7882 14.6074 17.3843 14.585 16.7578C14.5746 16.4479 14.5617 16.2328 14.5462 16.1126C14.5169 15.8789 14.4617 15.6715 14.3807 15.4903L14.8539 15.0026C14.9332 15.1262 14.9823 15.3167 15.0013 15.5741C15.0082 15.6672 15.0117 15.8645 15.0117 16.1659V16.9152C15.0117 17.1388 15.028 17.3013 15.0608 17.4029C15.1194 17.5841 15.2366 17.6747 15.4125 17.6747C15.5866 17.6747 15.7236 17.5985 15.8236 17.4461C15.9046 17.3225 15.9451 17.1828 15.9451 17.027H16.1649C16.1649 17.2082 16.2037 17.3564 16.2813 17.4715C16.3709 17.607 16.5037 17.6747 16.6795 17.6747H16.8321C17.0062 17.6747 17.1432 17.5985 17.2432 17.4461C17.3243 17.3225 17.3648 17.1828 17.3648 17.027H17.5846C17.5846 17.2082 17.6233 17.3564 17.7009 17.4715C17.7906 17.607 17.9233 17.6747 18.0991 17.6747H18.2905C18.337 17.6747 18.4327 17.6671 18.5775 17.6518C18.3707 17.5282 18.2672 17.3504 18.2672 17.1184C18.2672 16.8848 18.3948 16.657 18.6499 16.4352C18.8844 16.2303 19.0947 16.1278 19.2809 16.1278C19.5757 16.1278 19.817 16.2853 20.0049 16.6003C20.0359 16.6528 20.0385 16.679 20.0127 16.679C19.9989 16.679 19.9756 16.6731 19.9428 16.6612C19.8429 16.6257 19.7187 16.6079 19.5705 16.6079C19.255 16.6079 19.0033 16.6782 18.8154 16.8187C18.8516 17.1489 19.0456 17.3877 19.3972 17.535L20.3721 17.2861L20.0721 17.9262C19.7325 18.0007 19.2826 18.1074 18.7223 18.2462C18.3862 18.3292 18.169 18.3707 18.0707 18.3707ZM18.1509 16.0262L17.794 16.3767L17.432 16.0643L17.101 16.392L16.7209 16.0643L17.0777 15.7062L17.4398 16.0237L17.7707 15.6909L18.1509 16.0262ZM20.8656 15C20.9104 15.2168 20.9328 15.5275 20.9328 15.9322C20.9328 16.5994 20.8708 17.3301 20.7466 18.1243L20.4855 18.5104L20.4829 17.5553C20.4829 16.668 20.4062 15.9907 20.2527 15.5233L20.8656 15ZM26.4621 18.3721H26.3294C26.1894 18.3721 26.0627 18.3121 25.9493 18.1921C25.846 18.0804 25.7818 17.952 25.7568 17.807C25.7284 17.9487 25.6626 18.0737 25.5592 18.1821C25.4375 18.3088 25.2933 18.3721 25.1266 18.3721C24.8599 18.3721 24.6898 18.2037 24.6165 17.867C24.4798 18.2021 24.2914 18.3696 24.0513 18.3696C23.9096 18.3696 23.7888 18.3121 23.6887 18.1971C23.6154 18.1121 23.5629 18.0112 23.5312 17.8945C23.3945 18.2129 23.1961 18.3721 22.936 18.3721H22.8035C22.5134 18.3721 22.3158 18.1304 22.2108 17.6469C22.1575 17.8436 22.0824 18.0087 21.9858 18.1421C21.4606 18.1421 21.113 18.0245 20.943 17.7895C21.0113 17.5344 21.0714 17.3344 21.123 17.1893C21.3264 17.0076 21.6182 16.8459 21.9983 16.7042C21.9849 16.6408 21.9566 16.5508 21.9132 16.4341L22.2108 15.989C22.2992 16.1174 22.3659 16.3374 22.4109 16.6492C22.4709 17.0626 22.5092 17.2985 22.5259 17.3569C22.5892 17.5769 22.6943 17.6869 22.841 17.6869H22.881V17.6894H22.9786C23.1319 17.6894 23.2528 17.6169 23.3411 17.4719C23.4145 17.3519 23.4512 17.2193 23.4512 17.0743H23.6762C23.6762 17.4844 23.8088 17.6894 24.0738 17.6894C24.2506 17.6894 24.3798 17.6094 24.4614 17.4494C24.5181 17.3394 24.5465 17.2143 24.5465 17.0743H24.7715C24.7715 17.2643 24.7899 17.4027 24.8265 17.4894C24.8832 17.6244 24.9924 17.6919 25.1541 17.6919C25.3375 17.6919 25.475 17.6111 25.5667 17.4494C25.6317 17.3344 25.6643 17.2077 25.6643 17.0693H25.8893C25.8893 17.4844 26.0335 17.6919 26.3219 17.6919H26.3969L26.2571 17.6869H26.5097C26.678 17.6869 26.8022 17.6044 26.8822 17.4394C26.9373 17.326 26.9648 17.2035 26.9648 17.0718H27.1873C27.1873 17.4836 27.3407 17.6894 27.6474 17.6894C27.8508 17.6894 27.9975 17.6103 28.0876 17.4519C28.1492 17.3435 28.1801 17.2168 28.1801 17.0718H28.4051C28.4051 17.4819 28.5393 17.6869 28.8077 17.6869C29.0061 17.6869 29.1645 17.6361 29.2829 17.5344C29.2829 17.4894 29.1762 17.3127 28.9628 17.0043L29.3479 16.4991C29.4079 16.5625 29.4679 16.6683 29.5279 16.8167C29.5946 16.9801 29.628 17.1168 29.628 17.2268C29.628 17.2902 29.5988 17.411 29.5404 17.5894C29.5138 17.6711 29.4679 17.7911 29.4029 17.9495C29.3446 18.0645 29.2587 18.1621 29.1453 18.2421C29.0236 18.3288 28.9019 18.3721 28.7802 18.3721C28.6485 18.3721 28.5327 18.3188 28.4327 18.2121C28.3376 18.1137 28.2793 17.997 28.2576 17.862C28.1642 18.2021 27.9575 18.3721 27.6374 18.3721C27.4024 18.3721 27.2173 18.2029 27.0823 17.8645C26.9106 18.2029 26.7039 18.3721 26.4621 18.3721ZM22.1883 17.5494L22.0783 16.9943C21.8215 17.0493 21.5815 17.1776 21.3581 17.3794C21.4565 17.5011 21.6607 17.5619 21.9708 17.5619C22.0491 17.5619 22.1216 17.5577 22.1883 17.5494ZM30.8385 17.777C30.7918 17.6753 30.7302 17.5836 30.6535 17.5019C30.5584 17.4002 30.4651 17.3494 30.3734 17.3494C30.3267 17.3494 30.2759 17.391 30.2209 17.4744C30.1742 17.5444 30.145 17.6078 30.1333 17.6644C30.1517 17.7195 30.2175 17.7628 30.3309 17.7945C30.4142 17.8178 30.4968 17.8295 30.5784 17.8295C30.6835 17.8295 30.7702 17.812 30.8385 17.777ZM32.8165 17.9495C32.8199 17.9162 32.8215 17.8845 32.8215 17.8545C32.8215 17.5394 32.6532 17.346 32.3164 17.2743C32.2214 17.3394 32.1564 17.436 32.1213 17.5644C32.2514 17.7445 32.4831 17.8728 32.8165 17.9495Z" fill="#313C4C"/>
<path fill-rule="evenodd" clip-rule="evenodd" d="M16.5318 30.7284H14.9642C14.341 30.7284 13.8358 30.2232 13.8358 29.6V29.5987C13.8358 29.4741 13.9368 29.373 14.0614 29.373C14.7471 29.373 16.8025 29.373 17.5187 29.373C17.6565 29.373 17.7681 29.4847 17.7681 29.6224C17.7681 29.8662 17.7681 31.9659 17.7681 31.9659C17.7682 32.0912 17.6666 32.1927 17.5413 32.1928H17.5394C16.9829 32.1927 16.5318 31.7417 16.5318 31.1852V30.7284ZM27.5172 25.9632C27.4778 27.0251 28.1239 27.4597 28.7263 27.1192C29.2729 26.8103 29.8243 24.9408 30.2496 23.3514C30.4436 22.6261 30.6177 21.9593 30.7302 21.5252C30.8079 21.2245 31.0792 21.0144 31.3898 21.0144C31.7834 21.0143 32.3162 21.0143 32.6951 21.0143C32.8046 21.0143 32.9075 21.0667 32.9719 21.1553C33.0362 21.2438 33.0543 21.3579 33.0204 21.462C32.6663 22.5446 31.7294 25.34 30.9522 27.0339C30.3186 28.415 29.549 28.6332 28.6072 28.6182C28.5276 28.6169 27.9283 28.5634 27.6137 28.1303C27.299 27.6972 27.1175 27.0536 27.283 26.5444C27.2897 26.5236 27.2965 26.5026 27.3031 26.4815C27.2209 26.6751 27.1396 26.8603 27.06 27.0339C26.4263 28.415 25.6568 28.6332 24.715 28.6182C24.6353 28.6169 24.0361 28.5634 23.7214 28.1303C23.4855 27.8056 23.3245 27.3626 23.3283 26.9467C23.3141 26.9761 23.2998 27.0052 23.2856 27.0339C22.7174 28.1817 21.8824 28.6332 20.9406 28.6182C20.861 28.6169 19.9582 28.7183 19.2989 28.1064C18.9154 27.7506 18.5732 26.9135 18.4941 26.301C18.3862 26.5606 18.2792 26.8071 18.1752 27.0339C17.5415 28.415 16.772 28.6332 15.8302 28.6182C15.7505 28.6169 15.1932 28.5297 14.8366 28.1303C14.5219 27.7779 14.3282 27.1597 14.2599 26.6124C14.1968 26.7589 14.1343 26.8998 14.0728 27.0339C13.4391 28.415 12.6696 28.6332 11.7278 28.6182C11.6481 28.6169 11.0908 28.5297 10.7342 28.1303C10.365 27.7168 10.1623 26.9376 10.1334 26.3362C10.0297 26.5846 9.927 26.8208 9.827 27.0387C9.1934 28.4198 8.6952 29.3072 7.1906 30.3425C3.8908 32.6127 0.362997 30.9192 0.0232966 27.9478C-0.157603 26.3648 0.729397 24.095 2.1838 22.1465C2.4628 21.7727 3.3735 21.9886 3.3735 21.9886C3.2591 22.8549 0.0755967 25.8107 1.3734 28.7038C1.7764 29.6022 3.7232 29.821 5.1644 29.1864C6.0483 28.7971 6.8263 28.0185 7.4011 27.0717C7.7662 26.4702 8.4955 24.9456 8.9207 23.3562C9.1147 22.631 9.2888 21.9642 9.4013 21.5301C9.479 21.2293 9.7503 21.0192 10.0609 21.0192C10.5073 21.0192 11.1409 21.0192 11.5699 21.0192C11.6794 21.0191 11.7823 21.0715 11.8467 21.1601C11.9111 21.2487 11.9291 21.3628 11.8952 21.4669C11.6463 22.2279 11.1093 23.8355 10.5423 25.3117C10.422 26.8819 11.2102 27.479 11.8469 27.1192C12.3934 26.8103 12.9449 24.9408 13.3701 23.3514C13.5641 22.6261 13.7382 21.9593 13.8507 21.5252C13.9285 21.2245 14.1997 21.0144 14.5104 21.0144C14.904 21.0143 15.4367 21.0143 15.8157 21.0143C15.9252 21.0143 16.0281 21.0667 16.0924 21.1553C16.1568 21.2438 16.1748 21.3579 16.1409 21.462C15.8694 22.292 15.2554 24.1288 14.6334 25.7041C14.6622 26.9797 15.3687 27.4473 15.9493 27.1192C16.4958 26.8103 17.0473 24.9408 17.4725 23.3514C17.6666 22.6261 17.8407 21.9593 17.9532 21.5252C18.0309 21.2245 18.3022 21.0144 18.6128 21.0144C19.0064 21.0143 19.5392 21.0143 19.9181 21.0143C20.0276 21.0143 20.1305 21.0667 20.1949 21.1553C20.2592 21.2438 20.2773 21.3579 20.2434 21.462C19.9865 22.2472 19.4232 23.9333 18.8365 25.4467C18.8107 26.5819 19.4681 27.4568 20.8267 27.0965C21.6171 26.8868 22.1577 24.9408 22.583 23.3514C22.777 22.6261 22.9511 21.9593 23.0636 21.5252C23.1413 21.2245 23.4126 21.0144 23.7232 21.0144C24.1194 21.0143 24.6565 21.0143 25.0358 21.0143C25.1446 21.0142 25.2469 21.0657 25.3114 21.1532C25.376 21.2406 25.3951 21.3536 25.3629 21.4574C25.0715 22.3903 24.3565 24.6091 23.6344 26.2766C23.7206 27.1077 24.2949 27.4239 24.8341 27.1192C25.3806 26.8103 25.9321 24.9408 26.3573 23.3514C26.5514 22.6261 26.7255 21.9593 26.838 21.5252C26.9157 21.2245 27.187 21.0144 27.4976 21.0144C27.8912 21.0143 28.424 21.0143 28.8029 21.0143C28.9124 21.0143 29.0153 21.0667 29.0796 21.1553C29.144 21.2438 29.162 21.3579 29.1281 21.462C28.8416 22.338 28.1735 24.3354 27.5172 25.9632ZM13.3254 29.6224C13.3254 29.4847 13.2138 29.373 13.076 29.373C12.323 29.373 10.0797 29.373 9.359 29.373C9.2991 29.373 9.2417 29.3968 9.1994 29.4391C9.157 29.4815 9.1333 29.5389 9.1333 29.5987V29.6C9.1333 30.2232 9.6385 30.7284 10.2617 30.7284C11.224 30.7284 12.5348 30.7284 13.076 30.7284C13.2138 30.7284 13.3254 30.6168 13.3254 30.4791C13.3254 30.2353 13.3254 29.8662 13.3254 29.6224ZM46.7659 18.1165C47.0477 18.1909 47.3464 18.0866 47.5207 17.853C47.7978 17.4219 47.9441 16.8927 47.9984 16.2708C48.0082 16.1644 47.9733 16.0586 47.9021 15.9789C47.831 15.8991 47.7299 15.8525 47.623 15.8501C46.7684 15.8311 44.7366 15.8361 43.5197 16.2245C41.9182 16.7357 39.8148 17.5101 38.4119 18.9278C37.527 19.822 36.8579 20.8229 36.3224 21.9467C36.2601 22.0804 36.2733 22.2371 36.3571 22.3585C36.4409 22.4799 36.5828 22.5478 36.7299 22.5368C38.0753 22.3831 40.938 22.27 41.6051 23.7526C41.9153 24.4421 40.4529 26.6829 37.6971 26.731C35.649 26.7668 34.7408 24.9436 35.0183 23.1047C35.3071 21.1902 36.9836 18.4543 39.0691 16.0118C39.1219 15.9507 39.1347 15.8646 39.1019 15.7908C39.0691 15.7169 38.9966 15.6687 38.9158 15.667C38.4698 15.6573 37.7742 15.6425 37.2434 15.6312C36.7758 15.6209 36.3384 15.8611 36.096 16.261C34.9041 18.2114 34.3106 19.4409 33.7632 21.0777C33.1489 22.9146 32.6151 24.7505 33.2168 26.6355C33.8085 28.4893 36.0252 28.713 36.3663 28.7097C37.649 28.6969 39.9637 28.2398 41.4567 25.8887C42.5574 24.1552 43.5903 20.333 38.2419 20.893C39.0622 19.7127 40.4697 18.6658 42.453 18.2969C44.207 17.9706 45.872 17.9673 46.7659 18.1165ZM7.8558 21.6761C7.9178 21.5057 7.8928 21.3158 7.7888 21.1673C7.6848 21.0188 7.5149 20.9303 7.3336 20.9303C7.0893 20.9303 6.8161 20.9303 6.5561 20.9303C5.9093 20.9303 5.3316 21.3349 5.1104 21.9427C5.0245 22.1786 4.9322 22.4322 4.8436 22.6758C4.7427 22.953 4.7834 23.2621 4.9526 23.5037C5.1218 23.7454 5.3983 23.8893 5.6933 23.8893C5.8066 23.8893 5.9202 23.8893 6.0309 23.8893C6.643 23.8893 7.1897 23.5064 7.399 22.9313C7.5472 22.5242 7.7173 22.0567 7.8558 21.6761Z" fill="#FDB816"/>
</svg>
