<svg width="48" height="48" viewBox="0 0 48 48" fill="none" xmlns="http://www.w3.org/2000/svg">
<path fill-rule="evenodd" clip-rule="evenodd" d="M4.3103 31.4656L12 44.7845H17.7339L10.0742 31.5792L11.5354 29.0484L20.6206 44.7845H36L38.8706 39.8125L23.5832 39.8188L14.4502 23.9999L17.7754 18.2404H11.9459L4.3103 31.4656ZM40.3103 37.3188L48 23.9999L45.1331 19.0342L37.5268 32.2703H34.6045L43.6897 16.5342L36 3.21533H30.2589L37.908 16.4514L28.7749 32.2703H22.1244L25.0392 37.3188H40.3103ZM25.8601 10.681L24.399 8.15013L9.1331 8.18103L12 3.21533H27.3794L35.015 16.4405L32.1002 21.489L28.7749 15.7295H10.5088L2.8706 28.9719L0 23.9999L7.6897 10.681H25.8601Z" fill="#B11116"/>
<path fill-rule="evenodd" clip-rule="evenodd" d="M24.0001 18.2603C27.217 18.2603 29.8288 20.8721 29.8288 24.089C29.8288 27.3059 27.217 29.9177 24.0001 29.9177C20.7832 29.9177 18.1714 27.3059 18.1714 24.089C18.1714 20.8721 20.7832 18.2603 24.0001 18.2603Z" fill="#00A1BF"/>
</svg>
